Coordinates
version=1
nRows=29
nColumns=24
inDegrees=yes

Units are S.I. units (second, meters, Newtons, ...)
Angles are in degrees.

endheader
time	pelvis_tilt	pelvis_list	pelvis_rotation	pelvis_tx	pelvis_ty	pelvis_tz	hip_flexion_r	hip_adduction_r	hip_rotation_r	knee_angle_r	ankle_angle_r	subtalar_angle_r	mtp_angle_r	hip_flexion_l	hip_adduction_l	hip_rotation_l	knee_angle_l	ankle_angle_l	subtalar_angle_l	mtp_angle_l	lumbar_extension	lumbar_bending	lumbar_rotation
      1.03766667	      0.67270468	     -4.57151928	      7.40151803	      0.52977655	      1.03653574	      0.30155567	      4.75708241	     10.46340343	     -0.98809995	    -12.82998656	      5.16835851	    -12.09155925	      4.36617658	     12.58065040	     -7.16751239	     -2.51723871	    -54.34406966	      8.73695999	     -1.51117549	     -0.31392039	      1.30856886	      1.10949894	     -1.75577177
      1.04183333	      0.69576583	     -4.48337515	      7.27198338	      0.53446791	      1.03690400	      0.30202475	      4.31318166	     10.41802937	     -0.95239569	    -12.60097277	      5.31123310	    -11.84564718	      4.22341537	     13.07680871	     -6.96566486	     -2.53422157	    -53.79520293	      8.96886435	     -1.46038013	     -0.21642858	      1.22354173	      1.03284637	     -1.50817376
      1.04600000	      0.67155703	     -4.41718242	      7.15311519	      0.53912878	      1.03716738	      0.30246890	      3.92108124	     10.39259872	     -0.88301256	    -12.35568912	      5.36384999	    -11.72512736	      4.20557310	     13.62716073	     -6.76914023	     -2.50599695	    -53.21851661	      9.18157296	     -1.46450698	     -0.19985551	      1.18393755	      0.99010801	     -1.47177758
      1.05016667	      0.71831190	     -4.31011038	      7.00724757	      0.54379896	      1.03750593	      0.30295608	      3.46119332	     10.32540591	     -0.85712040	    -12.15290976	      5.55100020	    -11.45295320	      4.08841915	     14.06540694	     -6.55790771	     -2.54294766	    -52.58458232	      9.41037317	     -1.42895708	     -0.12174876	      1.05095941	      0.87038042	     -1.19582582
      1.05433333	      0.71360454	     -4.22435686	      6.86688196	      0.54844178	      1.03774039	      0.30341619	      3.06412442	     10.27385501	     -0.81705762	    -11.95311991	      5.69891104	    -11.23030977	      3.95439789	     14.55906527	     -6.35185885	     -2.53902299	    -51.92022101	      9.59237974	     -1.45528317	     -0.04045007	      0.98152874	      0.79092428	     -1.01259921
      1.05850000	      0.69734075	     -4.13716562	      6.72658257	      0.55309990	      1.03791887	      0.30386589	      2.67694156	     10.21822341	     -0.77214546	    -11.75018804	      5.84784898	    -11.01672406	      3.81339099	     15.05248207	     -6.14249894	     -2.53024566	    -51.22017481	      9.74111188	     -1.51243138	      0.03877051	      0.93245074	      0.70704361	     -0.84832141
      1.06266667	      0.66325478	     -4.07548455	      6.58912651	      0.55775935	      1.03802628	      0.30431867	      2.30454795	     10.19123476	     -0.69855806	    -11.52539371	      5.93226844	    -10.88774366	      3.77572641	     15.56480275	     -5.96585110	     -2.51770012	    -50.50451645	      9.92083797	     -1.54981725	      0.06128585	      0.90856944	      0.64691291	     -0.79590556
      1.06683333	      0.61883296	     -3.99257044	      6.44218916	      0.56241342	      1.03810016	      0.30477115	      1.94831478	     10.13773755	     -0.62041506	    -11.31988607	      6.06410220	    -10.73573361	      3.73199678	     16.06592160	     -5.76439375	     -2.50783841	    -49.73889133	     10.03615741	     -1.62308359	      0.08323720	      0.88938914	      0.55552293	     -0.68780075
      1.07100000	      0.59834165	     -3.89926581	      6.27625137	      0.56702729	      1.03819575	      0.30521902	      1.58906130	     10.06976342	     -0.55531315	    -11.16861027	      6.24253905	    -10.51542546	      3.64701240	     16.51662544	     -5.54716533	     -2.48255611	    -48.91660108	     10.07753955	     -1.76968809	      0.11745183	      0.82139154	      0.47920494	     -0.47133287
      1.07516667	      0.55558633	     -3.82202509	      6.11986029	      0.57166260	      1.03821359	      0.30565369	      1.24359280	     10.01677984	     -0.48552443	    -10.98622800	      6.40243440	    -10.32285108	      3.56187549	     16.98941314	     -5.35234769	     -2.45678110	    -48.08035415	     10.12199080	     -1.90379410	      0.14750324	      0.80203921	      0.40484875	     -0.31549684
      1.07933333	      0.48188364	     -3.74049053	      5.95717396	      0.57630452	      1.03817091	      0.30609422	      0.93635269	      9.95601829	     -0.39720138	    -10.81867331	      6.56071331	    -10.15281144	      3.47771246	     17.47898830	     -5.15050041	     -2.42289972	    -47.20565444	     10.12373979	     -2.06239723	      0.17124070	      0.81889252	      0.32200955	     -0.17262418
      1.08350000	      0.43976462	     -3.66402456	      5.80333624	      0.58095432	      1.03814578	      0.30649482	      0.59222523	      9.89937607	     -0.33462508	    -10.64290506	      6.74206115	     -9.93669122	      3.33824115	     17.92174832	     -4.95342854	     -2.36895191	    -46.29695833	     10.06731416	     -2.28642222	      0.20352605	      0.81102947	      0.25974156	      0.02723606
      1.08766667	      0.36601585	     -3.57930045	      5.62000551	      0.58558901	      1.03804604	      0.30696288	      0.29232303	      9.83547671	     -0.20522997	    -10.49171445	      6.89154296	     -9.81405961	      3.26003097	     18.38017481	     -4.76264394	     -2.34965671	    -45.35815140	     10.04441677	     -2.43575996	      0.21677164	      0.81613517	      0.16680578	      0.12011048
      1.09183333	      0.29601499	     -3.50172301	      5.45330734	      0.59024591	      1.03792705	      0.30737340	     -0.01736713	      9.77491903	     -0.10751457	    -10.32609044	      7.06214500	     -9.64444199	      3.12708507	     18.82282174	     -4.56762845	     -2.28573026	    -44.38557982	      9.92501457	     -2.71454827	      0.23148527	      0.84193650	      0.09540517	      0.30920384
      1.09600000	      0.22393369	     -3.42137362	      5.26950523	      0.59488976	      1.03777298	      0.30781894	     -0.31572797	      9.71182484	      0.02048966	    -10.18170521	      7.22945989	     -9.49294210	      2.98049696	     19.25151388	     -4.38185161	     -2.23857216	    -43.38276173	      9.81412950	     -2.95862033	      0.24243630	      0.85622429	      0.01137918	      0.46482257
      1.10016667	      0.11848670	     -3.33114018	      5.06445090	      0.59953833	      1.03755250	      0.30830312	     -0.56937464	      9.63636940	      0.18008345	    -10.06017498	      7.39820456	     -9.39866308	      2.88721871	     19.69746924	     -4.19659189	     -2.21823921	    -42.34801163	      9.68271774	     -3.18393915	      0.24148673	      0.90501308	     -0.08414133	      0.57351733
      1.10433333	      0.04590576	     -3.24763020	      4.86177943	      0.60421230	      1.03736436	      0.30876861	     -0.86781342	      9.56884238	      0.34781230	     -9.92019493	      7.55434517	     -9.29120424	      2.80590957	     20.09063140	     -4.02367945	     -2.18312044	    -41.28020084	      9.52982857	     -3.44057636	      0.23449175	      0.92628719	     -0.17622285	      0.70246703
      1.10850000	     -0.04526156	     -3.15738319	      4.65219548	      0.60888752	      1.03713064	      0.30923898	     -1.14041745	      9.49013418	      0.52041381	     -9.79391755	      7.71985789	     -9.18821775	      2.72056079	     20.48676756	     -3.84396134	     -2.13911381	    -40.17731841	      9.33184341	     -3.74568619	      0.22215964	      0.96980067	     -0.27611408	      0.85384475
      1.11266667	     -0.13959633	     -3.07796434	      4.43833401	      0.61356220	      1.03685479	      0.30970938	     -1.40485445	      9.42184493	      0.69819719	     -9.67433282	      7.88538661	     -9.08645665	      2.63049713	     20.87736415	     -3.68169229	     -2.09308518	    -39.05763869	      9.12607937	     -4.05846804	      0.20563376	      1.01902658	     -0.35213263	      1.01245960
      1.11683333	     -0.21426483	     -2.98746164	      4.21067961	      0.61826081	      1.03660504	      0.31020188	     -1.69336767	      9.34132385	      0.89443573	     -9.55480761	      8.05063195	     -8.99313996	      2.54536114	     21.22257455	     -3.52169964	     -2.06146028	    -37.90107452	      8.91124280	     -4.36132604	      0.18519651	      1.04358840	     -0.44874779	      1.16490916
      1.12100000	     -0.30527124	     -2.90825133	      3.99860746	      0.62296969	      1.03628780	      0.31065237	     -1.96740916	      9.26872142	      1.07350321	     -9.42447403	      8.21572709	     -8.89240902	      2.42039460	     21.58005663	     -3.36232777	     -1.98289156	    -36.72974679	      8.65651939	     -4.74945607	      0.15405506	      1.10638064	     -0.51594219	      1.37431204
      1.12516667	     -0.39652031	     -2.83621370	      3.75833000	      0.62768013	      1.03594440	      0.31115448	     -2.23100654	      9.20356362	      1.29048548	     -9.31895043	      8.38193118	     -8.81297766	      2.29362063	     21.92291851	     -3.23418008	     -1.94375660	    -35.54220169	      8.42929466	     -5.06622784	      0.11813059	      1.15553848	     -0.58594478	      1.54401441
      1.12933333	     -0.48094661	     -2.75406492	      3.50907065	      0.63240106	      1.03559801	      0.31167464	     -2.50172093	      9.12654619	      1.51786048	     -9.21741320	      8.54579835	     -8.73715408	      2.16298525	     22.24151555	     -3.10421149	     -1.90883918	    -34.32960481	      8.19158572	     -5.39313297	      0.07432061	      1.20074362	     -0.67538811	      1.71481210
      1.13350000	     -0.56631186	     -2.67922931	      3.23722454	      0.63712341	      1.03520633	      0.31223783	     -2.75955847	      9.05577521	      1.77399203	     -9.14363054	      8.72333842	     -8.68797274	      2.08771919	     22.55298507	     -3.00961080	     -1.93197221	    -33.11470756	      7.99645277	     -5.61512815	      0.04044304	      1.24339603	     -0.76491406	      1.82435114
      1.13766667	     -0.62749862	     -2.61531378	      2.99511847	      0.64186967	      1.03484520	      0.31271652	     -3.06488078	      8.99342845	      2.00051201	     -9.01630806	      8.86779446	     -8.62365824	      1.95942613	     22.82452992	     -2.90080911	     -1.85328226	    -31.86961950	      7.73334971	     -6.00571791	     -0.01787642	      1.27103422	     -0.80697144	      2.05669446
      1.14183333	     -0.70377884	     -2.54959927	      2.72577730	      0.64661777	      1.03442666	      0.31325614	     -3.33980769	      8.92691243	      2.25477761	     -8.92520272	      9.03441972	     -8.56577977	      1.83238912	     23.10237597	     -2.81706834	     -1.83515866	    -30.61967081	      7.50466991	     -6.30419932	     -0.08160695	      1.31424227	     -0.87059431	      2.23781957
      1.14600000	     -0.79510290	     -2.49763208	      2.45132804	      0.65137101	      1.03395136	      0.31379314	     -3.59506199	      8.87151374	      2.51312256	     -8.83921439	      9.19621989	     -8.51485659	      1.70731109	     23.39302324	     -2.75609956	     -1.82249022	    -29.37253585	      7.29080418	     -6.57895835	     -0.15123410	      1.37382980	     -0.91428491	      2.41403870
      1.15016667	     -0.87023874	     -2.44521328	      2.15527648	      0.65612401	      1.03346797	      0.31438203	     -3.85880811	      8.81499838	      2.79069836	     -8.77687315	      9.37225078	     -8.47195574	      1.63529790	     23.66033794	     -2.72387543	     -1.88233462	    -28.12899722	      7.12014034	     -6.75045686	     -0.20015730	      1.40465381	     -0.96973927	      2.52382250
      1.15433333	     -0.91391700	     -2.40582284	      1.89088455	      0.66090008	      1.03301159	      0.31488141	     -4.17876931	      8.76861938	      3.04856678	     -8.66104537	      9.51149198	     -8.41988116	      1.50944158	     23.87923688	     -2.67875458	     -1.83161324	    -26.85816001	      6.89154724	     -7.07052086	     -0.28431674	      1.42187348	     -0.99042603	      2.76992603
